<svg xmlns="http://www.w3.org/2000/svg" viewBox="0 0 274.86 73.22"><defs><style>.cls-1{fill:#004439;}</style></defs><title>Asset 1</title><g id="Layer_2" data-name="Layer 2"><g id="Laag_1" data-name="Laag 1"><path class="cls-1" d="M63.09,4.22c-6.38.73-9.62,1.16-9.62,13.49V73.16H51.75L14.48,15.39h-.2V56.5c0,10.86,2.12,13.18,9.51,13.5v2H0V70c7.69-.53,9.82-2.11,9.82-13.5V10C5.67,4.74,4.05,4.22,0,4.22v-2H17.31l31.5,50.7H49V17.71c0-12.12-2.83-13-9.72-13.49v-2h23.8Z"/><path class="cls-1" d="M110.29,70.42c6-.42,7.8-1.79,7.8-7.59V12.55c0-4.75-.61-6.43-4.56-6.43-1.31,0-2.23.1-3.44.2V4.64c5.37-1.37,10.73-2.84,16.1-4.64l.4.21V63.15c0,6.11,1.72,6.95,7.6,7.27V72h-23.9Z"/><path class="cls-1" d="M169.89,61.25c-.81,3.79-4.76,6.32-9,6.32-6.67,0-14-5.9-14-21.61,0-14.33,6.87-19.5,12.55-19.5,4.76,0,9.72,3.37,10.43,10.54Zm15.28,4.64c-6.78.52-6.78-1.59-6.78-5.91V.21l-.5-.21C173,1.8,168.06,3.27,163,4.64V6.32a21.44,21.44,0,0,1,2.43-.1c4.46,0,4.46,2.21,4.46,5.38V28c-3.35-3.05-6.38-4.53-10.74-4.53-11.34,0-21,12.12-21,25.93,0,21.5,14.48,23.61,18.42,23.61,7.5,0,11.24-3.9,13.06-6.75h.21v6.44l.4.31c5.37-2,10-3.69,14.88-5.48Z"/><path class="cls-1" d="M236.23,68.2A140.26,140.26,0,0,0,222.16,73l-.2-.21V64l-4.36,4.53A14.89,14.89,0,0,1,207,73.05c-4.15,0-12.05-2.53-12.05-13.7V32.78c0-6.32-3.24-6.53-6.28-6.74V24.56h14.78V58.93c0,1.48.91,8,7.6,8,3,0,6.07-1.48,8.81-3.79.91-.85,1.62-1.9,1.62-5.38V33c0-4.22-.41-6.43-7.5-6.64v-1.8h16V60.72c0,3.79.2,6.22,6.28,6Z"/><path class="cls-1" d="M270,38.9c-2.23-10.75-6.78-13-11.24-13-5.56,0-7.69,4.12-7.69,6.85a8.36,8.36,0,0,0,4.35,7.49L266.36,47c4.95,3.16,8.5,6.11,8.5,12.43,0,9.18-8.2,13.6-14.68,13.6-4.56,0-8.91-2-11.75-1.89a2.16,2.16,0,0,0-2.22,1.26h-1.32V56h1.62c1.21,5.58,3.14,14.75,13.06,14.75,3.44,0,8.2-1.68,8.2-7.69,0-3.38-2-5.9-5.26-7.8l-5.87-3.48c-6.28-3.69-11.85-7.59-11.85-15.39,0-5.9,4.35-12.86,14.17-12.86,4.46,0,7.6,2.1,9.32,2.1A2.2,2.2,0,0,0,270,24.46h1.11l.41,14.44Z"/><path class="cls-1" d="M93.48,32.11Q98.54,39.54,98,52,97.52,62,94.1,66a10,10,0,0,1-8.39,3.73Q79,69.4,75.29,61.78A36.27,36.27,0,0,1,72,43.92,27.2,27.2,0,0,1,74.18,33.6a11.3,11.3,0,0,1,4.7-5.46,10.68,10.68,0,0,1,5.54-1.37A11.11,11.11,0,0,1,93.48,32.11ZM73.93,26.49a21.87,21.87,0,0,0-8.46,9.43,28.38,28.38,0,0,0-3.22,12.84,26.18,26.18,0,0,0,5.3,16,20,20,0,0,0,16.92,8.46,21.6,21.6,0,0,0,20.21-13,29.93,29.93,0,0,0,3-12.77,24.8,24.8,0,0,0-5.5-15.89A20.89,20.89,0,0,0,85,23.44,21.68,21.68,0,0,0,73.93,26.49Z"/></g></g></svg>